<svg width="200" height="300" viewBox="0 0 200 300" fill="none" xmlns="http://www.w3.org/2000/svg">
<g opacity="0.25">
<path d="M83.891 140.845C38.4918 140.845 8.98606 121.366 0 85.7896L200 85.9143V140.845H83.891Z" fill="#EF8F60"/>
<path d="M99.6994 67.4844C81.271 67.4844 65.707 52.1606 65.707 34.0292C65.707 15.8978 81.2837 0 99.6994 0C118.115 0 134.262 15.2613 134.262 34.0292C134.262 52.797 118.432 67.4844 99.6994 67.4844Z" fill="#EF8F60"/>
<path d="M0 214.082V159.151H116.109C161.508 159.151 191.014 178.63 200 214.207L0 214.082Z" fill="#EF8F60"/>
<path d="M100.301 300C81.2389 300 65.7383 284.739 65.7383 265.971C65.7383 247.203 81.5684 232.516 100.301 232.516C119.034 232.516 134.281 247.839 134.281 265.971C134.281 284.102 118.717 300 100.301 300Z" fill="#EF8F60"/>
</g>
</svg>
